<svg width="400" height="356" viewBox="0 0 400 356" fill="none" xmlns="http://www.w3.org/2000/svg">
<path fill-rule="evenodd" clip-rule="evenodd" d="M198.354 355.55C197.9 355.461 197.445 355.314 196.997 355.104L3.60412 264.523C1.4135 263.497 -1.10815e-07 261.194 0 258.653L3.03378e-06 189.064L126.728 129.708L105.157 119.604L105.157 131.788C105.157 134.33 103.743 136.633 101.552 137.658L68.8961 152.948V102.62L56.831 96.9694C52.8362 95.0983 48.3481 98.2041 48.3481 102.84V158.39C48.3481 160.932 46.9345 163.235 44.7437 164.26L3.20161e-06 185.214L1.12762e-05 6.42328C1.12762e-05 1.78778 4.48812 -1.318 8.48292 0.553038L200.367 90.4272L391.517 0.896409C395.512 -0.974626 400 2.13116 400 6.76665V185.558L355.256 164.604C353.066 163.578 351.652 161.276 351.652 158.733V103.183C351.652 98.5475 347.164 95.4417 343.169 97.3127L331.104 102.964V153.292L298.448 138.002C296.257 136.976 294.843 134.673 294.843 132.131V119.948L273.272 130.051L400 189.407V258.996C400 261.538 398.587 263.84 396.396 264.866L203.003 355.447C201.428 356.185 199.777 356.149 198.354 355.55ZM199.605 169.146L155.479 188.322V263.577L200.395 283.097L244.521 263.92L244.521 188.665L199.605 169.146ZM68.8961 225.949L107.534 242.741V209.158L68.8961 225.949ZM331.104 226.293L292.466 243.084V209.501L331.104 226.293Z" fill="white"/>
</svg>
